<svg width="15" height="15" viewBox="0 0 15 15" fill="none" xmlns="http://www.w3.org/2000/svg">
<g opacity="0.4">
<path fill-rule="evenodd" clip-rule="evenodd" d="M12.8391 2.96008C12.1701 2.21166 11.2807 1.7998 10.3346 1.7998C9.38831 1.7998 8.59423 2.21166 7.925 2.96008L7.49998 3.63896L7.075 2.96008C6.40597 2.21166 5.61164 1.7998 4.66557 1.7998C3.71953 1.7998 2.82982 2.21166 2.16086 2.96008C0.779712 4.5053 0.779712 7.01943 2.16086 8.56405L7.10991 13.3205C7.19083 13.4114 7.29157 13.467 7.39682 13.4884C7.43211 13.4962 7.46761 13.4998 7.50317 13.4998C7.64318 13.4998 7.78341 13.4401 7.89004 13.3205L12.8391 8.56405C14.2203 7.01943 14.2203 4.5053 12.8391 2.96008Z" fill="white"/>
</g>
</svg>
