<svg width="20" height="20" viewBox="0 0 20 20" fill="none" xmlns="http://www.w3.org/2000/svg">
<path fill-rule="evenodd" clip-rule="evenodd" d="M17.1187 3.94743C16.2268 2.94953 15.041 2.40039 13.7794 2.40039C12.5178 2.40039 11.459 2.94953 10.5667 3.94743L9.99997 4.8526L9.43333 3.94743C8.5413 2.94953 7.48219 2.40039 6.22076 2.40039C4.95938 2.40039 3.7731 2.94953 2.88115 3.94743C1.03962 6.00772 1.03962 9.3599 2.88115 11.4194L9.47989 17.7613C9.58778 17.8825 9.72209 17.9566 9.86242 17.9852C9.90948 17.9956 9.95681 18.0004 10.0042 18.0004C10.1909 18.0004 10.3779 17.9207 10.5201 17.7613L17.1188 11.4194C18.9604 9.3599 18.9604 6.00772 17.1187 3.94743Z" fill="white"/>
</svg>
